<?xml version="1.0" encoding="utf-8"?>
<!-- Svg Vector Icons : http://www.onlinewebfonts.com/icon -->
<!DOCTYPE svg PUBLIC "-//W3C//DTD SVG 1.1//EN" "http://www.w3.org/Graphics/SVG/1.1/DTD/svg11.dtd">
<svg version="1.1" xmlns="http://www.w3.org/2000/svg" xmlns:xlink="http://www.w3.org/1999/xlink" x="0px" y="0px" viewBox="0 0 1000 1000" enable-background="new 0 0 1000 1000" xml:space="preserve">
<metadata> Svg Vector Icons : http://www.onlinewebfonts.com/icon </metadata>
<g><path d="M924.3,254C880.5,179,821,119.5,746,75.7C670.9,31.9,588.9,10,500,10c-88.9,0-170.9,21.9-246,65.7C179,119.5,119.5,179,75.7,254C31.9,329.1,10,411.1,10,500c0,88.9,21.9,170.9,65.7,246C119.5,821,179,880.5,254,924.3S411.1,990,500,990c88.9,0,170.9-21.9,246-65.7C821,880.5,880.5,821,924.3,746c43.8-75.1,65.7-157.1,65.7-246C990,411.1,968.1,329.1,924.3,254z M757.1,528.7L467.5,818.4c-8.1,8.1-17.6,12.1-28.7,12.1s-20.6-4-28.7-12.1L345,753.3c-8.1-8.1-12.1-17.7-12.1-28.7c0-11.1,4-20.6,12.1-28.7L540.8,500L345,304.1c-8.1-8.1-12.1-17.7-12.1-28.7c0-11.1,4-20.6,12.1-28.7l65.1-65.1c8.1-8.1,17.7-12.1,28.7-12.1c11.1,0,20.6,4,28.7,12.1l289.7,289.7c8.1,8.1,12.1,17.7,12.1,28.7C769.3,511,765.2,520.6,757.1,528.7z"/></g>
</svg>